subject01_walk1_RRA_states
nRows=8
nColumns=47

# SIMM Motion File Header:
name subject01_walk1_RRA_states
datacolumns 47
datarows 8
otherdata 1
range 1.12299999999998670000 1.12649999999998630000
endheader
time	pelvis_tx	pelvis_ty	pelvis_tz	pelvis_tilt	pelvis_list	pelvis_rotation	hip_flexion_r	hip_adduction_r	hip_rotation_r	knee_angle_r	ankle_angle_r	subtalar_angle_r	mtp_angle_r	hip_flexion_l	hip_adduction_l	hip_rotation_l	knee_angle_l	ankle_angle_l	subtalar_angle_l	mtp_angle_l	lumbar_extension	lumbar_bending	lumbar_rotation	pelvis_tx_u	pelvis_ty_u	pelvis_tz_u	pelvis_tilt_u	pelvis_list_u	pelvis_rotation_u	hip_flexion_r_u	hip_adduction_r_u	hip_rotation_r_u	knee_angle_r_u	ankle_angle_r_u	subtalar_angle_r_u	mtp_angle_r_u	hip_flexion_l_u	hip_adduction_l_u	hip_rotation_l_u	knee_angle_l_u	ankle_angle_l_u	subtalar_angle_l_u	mtp_angle_l_u	lumbar_extension_u	lumbar_bending_u	lumbar_rotation_u
      1.12299999999998670000	      0.57682206252718904000	      1.03656808965633300000	      0.05450699937639882200	      4.73028348517532570000	     -2.64514285538623110000	     -1.31156883758064180000	    -13.39419418683124600000	      4.76106433063595610000	     -1.24968812499021540000	     -5.91260839477571220000	     10.77590442572434000000	     -0.04599543145773806600	      0.00932414367948944390	     19.52852246135580900000	     -5.40219012414718590000	     -9.14025439158768370000	    -17.40258245262508700000	     -1.48113842390150860000	     -0.00099879329957820923	     -0.02109892549239523000	    -16.56608292667798600000	      3.50433994026985340000	      2.79149119042045600000	     -0.07534260309091230000	     -0.16348459154085099000	      0.00428323992053938380	     -3.65559838433945930000	    -34.31319943803909200000	    -19.11561747683309800000	    -83.11168804064654100000	     30.33048786118388300000	     39.67462385926166500000	     29.99513608008226500000	     30.33023190308046300000	     -1.54011353944029340000	      0.63373691642469954000	    -21.03900089782390400000	    -14.14506941375832500000	     13.66109964698822800000	    337.70556833851828000000	    -13.84879108359780100000	      0.01831820579503899000	      0.15411650792914008000	     -1.13706671066520480000	     24.86657282258581200000	     17.19831576494776500000
      1.12349999999998660000	      0.57678450004751625000	      1.03648623520564740000	      0.05450904911291396000	      4.72847467125870310000	     -2.66228438275109890000	     -1.32114007327657810000	    -13.43574599111527200000	      4.77619390797606960000	     -1.22985037278804250000	     -5.89768087012027920000	     10.79104537968638100000	     -0.04676479775536168000	      0.00964098830251542030	     19.51798020196933300000	     -5.40922783878245280000	     -9.13325340484507640000	    -17.23396751049545400000	     -1.48794438877858860000	     -0.00098969027923034598	     -0.02102197204432317700	    -16.56667027813818300000	      3.51674669534608910000	      2.80008244042084220000	     -0.07490725675413159600	     -0.16393222848544592000	      0.00391565546415373590	     -3.57957907991098170000	    -34.25250686765073000000	    -19.16926883928053000000	    -83.09534441461751400000	     30.18727456657485300000	     39.67592989357123700000	     29.71466990622202100000	     30.23348693740801400000	     -1.53713628095804130000	      0.63310741521615843000	    -21.12964915793088100000	    -14.00581468935092400000	     14.34239069736994000000	    336.75173092746763000000	    -13.37478668198646000000	      0.01809094530707526500	      0.15371816293099910000	     -1.21243236703746300000	     24.75999165012417400000	     17.16656470493985900000
      1.12399999999998660000	      0.57674715532548326000	      1.03640415840850510000	      0.05451091498119467500	      4.72670398316626450000	     -2.67939495387689460000	     -1.33073805148375770000	    -13.47728934211303700000	      4.79125105194807150000	     -1.21001265888190180000	     -5.88289402773121490000	     10.80613747643712800000	     -0.04753255450378891800	      0.00995729531747812680	     19.50739320233285300000	     -5.41619595783009530000	     -9.12591246455701290000	    -17.06583319269100200000	     -1.49451290755018440000	     -0.00098070223427008745	     -0.02094520751337235500	    -16.56729545108443000000	      3.52909947001042480000	      2.80865763564879960000	     -0.07447158069880748000	     -0.16437398161747460000	      0.00354776768621869980	     -3.50309764070167300000	    -34.18936379835241700000	    -19.22259069791817900000	    -83.07786583147586200000	     30.04074167281309100000	     39.67445560347622500000	     29.43238712520432200000	     30.13418425904469100000	     -1.53406186094572460000	      0.63264160480701304000	    -21.21795632740857200000	    -13.86667380676495400000	     15.02089869039807400000	    335.78306883779777000000	    -12.89896482553720200000	      0.01786432648646332400	      0.15331879482821453000	     -1.28834992918690230000	     24.65063876675931500000	     17.13409690169129700000
      1.12449999999998650000	      0.57671002852091591000	      1.03632186220026390000	      0.05451259683363684400	      4.72497164797023840000	     -2.69647334012635960000	     -1.34036260812978590000	    -13.51882366552162100000	      4.80623409834769260000	     -1.19017638746837200000	     -5.86824878349916900000	     10.82117887896769500000	     -0.04829893288983756700	      0.01027410931077983600	     19.49676263791261400000	     -5.42309453415435350000	     -9.11823298552965690000	    -16.89818691143587500000	     -1.50084306630102530000	     -0.00097182521508026127	     -0.02086865381853846000	    -16.56795871641183700000	      3.54139687471549360000	      2.81721641784919850000	     -0.07403558063795252800	     -0.16480987782373713000	      0.00317959873539170770	     -3.42617048327271020000	    -34.12378178245019500000	    -19.27557761764320800000	    -83.05923846552516900000	     29.89090069825541800000	     39.67016348177756400000	     29.14830211202073700000	     30.03086714222550300000	     -1.53139514276202200000	      0.63488984881189381000	    -21.30390949033751400000	    -13.72766197191511000000	     15.69652951174284200000	    334.79958940921233000000	    -12.42142000271827000000	      0.01764188930876446600	      0.15291619200328238000	     -1.36479710220554780000	     24.53852906530774900000	     17.10091233733333400000
      1.12499999999998650000	      0.57667311979774705000	      1.03623934949739000000	      0.05451409453767204500	      4.72327788282841880000	     -2.71351832875691020000	     -1.35001357345501230000	    -13.56034838559548000000	      4.82114140101496870000	     -1.17034295251546850000	     -5.85374602151125870000	     10.83616789165270900000	     -0.04906394794358581700	      0.01059227884525582700	     19.48608968857170300000	     -5.42992364146506200000	     -9.11021643102015230000	    -16.73103607114011700000	     -1.50693405726363690000	     -0.00096306007632172884	     -0.02079229149609492600	    -16.56866033103946400000	      3.55363753930567890000	      2.82575842883647880000	     -0.07359926374494535400	     -0.16523997423408485000	      0.00281117694904618920	     -3.34882282988652680000	    -34.05575795929515700000	    -19.32823084261670800000	    -83.03944098816228300000	     29.73774967298028200000	     39.66313259580820000000	     28.86244254039989000000	     29.92493404643292000000	     -1.52868625185325670000	      0.63753753021723036000	    -21.38748792491109500000	    -13.58877983747592900000	     16.36918334790148700000	    333.80130415828597000000	    -11.94225423419768700000	      0.01742086620350865100	      0.15251264545121104000	     -1.44174095447929210000	     24.42366031046716300000	     17.06701301010690800000
      1.12549999999998640000	      0.57663642931557557000	      1.03615662320246150000	      0.05451540797122421400	      4.72162289253996730000	     -2.73052869329346140000	     -1.35969078254584110000	    -13.60186290821781600000	      4.83597129873113830000	     -1.15051371909126910000	     -5.83938663507987150000	     10.85110311428270600000	     -0.04982770215336860400	      0.01091217409792769700	     19.47537554876196400000	     -5.43668333819098050000	     -9.10186431368816960000	    -16.56438807322530600000	     -1.51278506633423590000	     -0.00095440335247740809	     -0.02071614172107651800	    -16.56940053584703400000	      3.56582007790429010000	      2.83428331183637990000	     -0.07316259696855632900	     -0.16566421260256228000	      0.00244251953876221080	     -3.27107117800306790000	    -33.98530494487332700000	    -19.38054562899947800000	    -83.01845358373553600000	     29.58130257330215000000	     39.65332080240199300000	     28.57481937717236800000	     29.81490823464155000000	     -1.52644235536115790000	      0.64317879473937112000	    -21.46867333415698600000	    -13.45004250833144800000	     17.03876722857818700000	    332.78822457691922000000	    -11.46156409818127600000	      0.01720554252860854000	      0.15210597560397848000	     -1.51915522301547390000	     24.30604836525319400000	     17.03239960629756300000
      1.12599999999998630000	      0.57659995726459412000	      1.03607368626554710000	      0.05451653702145393300	      4.72000687478484870000	     -2.74750322836568020000	     -1.36939406297408910000	    -13.64336663653416600000	      4.85072215392433210000	     -1.13069008063592260000	     -5.82517149056421420000	     10.86598235918782900000	     -0.05059039043044995200	      0.01123555666929068100	     19.46462141839980800000	     -5.44337370796678320000	     -9.09317819175198490000	    -16.39825030990530100000	     -1.51839538454070280000	     -0.00094585412585926592	     -0.02064018566415277300	    -16.57017955850496800000	      3.57794313010014340000	      2.84279070978942360000	     -0.07272554784558191200	     -0.16608256699098442000	      0.00207364818594530820	     -3.19294111352571260000	    -33.91241942327099000000	    -19.43252394860295600000	    -82.99625016406903900000	     29.42155703258540800000	     39.64082043597718300000	     28.28546706429299500000	     29.70234214835066700000	     -1.52416508771631490000	      0.64923684472501275000	    -21.54743941607619800000	    -13.31144873755041000000	     17.70518220257418600000	    331.76036632882938000000	    -10.97945387640948800000	      0.01699235816469446200	      0.15169857770210132000	     -1.59700247808224250000	     24.18569046620717000000	     16.99707439519962200000
      1.12649999999998630000	      0.57656370384443101000	      1.03599054164083790000	      0.05451748158605981800	      4.71843001179554820000	     -2.76444070958445120000	     -1.37912324974306810000	    -13.68485895134622500000	      4.86539230860751190000	     -1.11087335468001760000	     -5.81110145477196660000	     10.88080477518674600000	     -0.05135194875924856100	      0.01156193421166103400	     19.45382851655782000000	     -5.44999481328224530000	     -9.08415967481516340000	    -16.23263016757044100000	     -1.52376429988971780000	     -0.00093740981772083305	     -0.02056444361150647600	    -16.57099760543252000000	      3.59000531346661140000	      2.85128026783804510000	     -0.07228803901993390000	     -0.16649488980203386000	      0.00170457720748916720	     -3.11444924194872770000	    -33.83711464110612600000	    -19.48416186480049800000	    -82.97280440715718400000	     29.25852815817534500000	     39.62558884950420400000	     27.99439568853770800000	     29.58579258085614700000	     -1.52234272461042420000	      0.65825683716306871000	    -21.62376184069905700000	    -13.17301265277930400000	     18.36833628879869100000	    330.71774541183964000000	    -10.49602254868639800000	      0.01678592471421039600	      0.15128851853914183000	     -1.67525189222123450000	     24.06260266028437700000	     16.96103885903752200000
